# xmcd CD database file
#
# Track frame offsets:
#	150
#	12826
#	30479
#	43465
#	62091
#	74880
#	87784
#	109879
#	122497
#	138682
#	155358
#	169275
#	182748
#
# Disc length: 2756 seconds
#
# Revision: 0
# Processed by: cddbd v1.4PL0 Copyright (c) Steve Scherf et al.
# Submitted via: CDex 1.50beta10
#
DISCID=ba0ac20d
DTITLE=Fluíveis - Nem Espelho Nem Apito
DYEAR=2001
DGENRE=Blues
TTITLE0=Polegar
TTITLE1=A tribo
TTITLE2=Homem da lei
TTITLE3=Nega
TTITLE4=Baja ia
TTITLE5=A chuva
TTITLE6=A flor da pele
TTITLE7=O circo
TTITLE8=Excesso de supérfluo
TTITLE9=Drogas
TTITLE10=Dedo-duro
TTITLE11=Hippie
TTITLE12=Berimblues
EXTD=YEAR: 2001
EXTT0=
EXTT1=
EXTT2=
EXTT3=
EXTT4=
EXTT5=
EXTT6=
EXTT7=
EXTT8=
EXTT9=
EXTT10=
EXTT11=
EXTT12=
PLAYORDER=
